<?xml version="1.0" encoding="UTF-8"?>
<svg id="Layer_2" data-name="Layer 2" xmlns="http://www.w3.org/2000/svg" viewBox="0 0 422.52 227.21">
  <g id="Layer_1-2" data-name="Layer 1">
    <g>
      <path class="cls-1" d="M32.06,174.19c0,9.78-4.55,14.78-13.87,14.78-4.09,0-8.64-.68-13.64-1.82l-4.55,23.88c8.64,2.5,16.83,3.87,24.33,3.87,26.15,0,38.43-12.96,38.43-40.93V55.03h-30.7v119.16Z"/>
      <rect class="cls-1" x="220.36" y="9.32" width="26.83" height="25.24"/>
      <rect class="cls-1" x="180.79" y="9.32" width="27.06" height="25.24"/>
      <path class="cls-1" d="M345.89,134.62v-28.2c0-20.24,6.59-28.65,21.38-28.65,12.96,0,18.19,4.55,20.69,17.51l29.56-3.18c-4.55-28.43-19.56-40.71-49.35-40.71-35.25,0-52.98,18.42-52.98,54.8v28.43h-50.03v-29.79c0-35.7-16.83-53.44-50.71-53.44-31.38,0-52.53,21.15-52.53,48.44,0,13.42,6.37,27.52,15.69,34.79h-56.85V0h-30.7v162.36h332.47v-27.74h-76.63ZM234.46,134.62h-12.51c-18.42,0-29.34-11.6-29.34-30.93,0-17.06,7.73-26.38,21.38-26.38,14.33,0,20.47,7.5,20.47,25.01v32.29Z"/>
      <path class="cls-1" d="M103.63,181.06c-7.68,0-12.19,2.6-13.39,8.63l5.01.57c.76-3.05,2.92-4.89,8.19-4.89s7.55,2.29,7.55,7.87v1.27l-5.65.19c-8.38.32-16.76,2.22-16.76,11.11,0,6.6,4.63,9.84,11.24,9.84,5.4,0,8.95-2.41,11.3-5.27v4.51h5.33v-21.33c0-7.87-3.36-12.5-12.82-12.5ZM110.99,202.13c0,5.59-3.81,9.01-10.35,9.01-4.57,0-6.41-2.16-6.41-5.46,0-4.38,2.54-6.73,11.49-7.05l5.27-.19v3.68Z"/>
      <path class="cls-1" d="M148.7,186.27c-3.05-4.06-6.79-5.21-10.35-5.21-9.08,0-14.6,6.67-14.6,17.58,0,9.71,4.32,17.27,13.96,17.27,4.76,0,8.19-2.09,10.92-5.65v16.95h5.52v-45.13h-5.46v4.19ZM148.76,199.72c0,4.63-1.4,7.55-3.87,9.58-1.97,1.46-3.68,1.97-6.16,1.97-4.57,0-9.2-3.05-9.2-12.76s4.19-12.89,9.58-12.89c2.29,0,4.06.51,6.03,2.03,2.54,2.03,3.62,4.57,3.62,9.84v2.22Z"/>
      <path class="cls-1" d="M175.68,181.06c-7.68,0-12.19,2.6-13.39,8.63l5.01.57c.76-3.05,2.92-4.89,8.19-4.89s7.55,2.29,7.55,7.87v1.27l-5.65.19c-8.38.32-16.76,2.22-16.76,11.11,0,6.6,4.63,9.84,11.24,9.84,5.4,0,8.95-2.41,11.3-5.27v4.51h5.33v-21.33c0-7.87-3.36-12.5-12.82-12.5ZM183.04,202.13c0,5.59-3.81,9.01-10.35,9.01-4.57,0-6.41-2.16-6.41-5.46,0-4.38,2.54-6.73,11.49-7.05l5.27-.19v3.68Z"/>
      <path class="cls-1" d="M202.34,187.15v-5.08h-5.46v32.82h5.52v-19.49c0-2.79,1.14-4.89,2.98-6.47,1.84-1.71,4.06-2.35,6.09-2.35,1.02,0,1.84.13,2.67.32l.7-5.14c-.83-.19-1.78-.25-2.92-.25-3.74,0-7.11,2.03-9.58,5.65Z"/>
    </g>
  </g>
</svg>